<svg width="20" height="21" viewBox="0 0 20 21" fill="none" xmlns="http://www.w3.org/2000/svg">
<path d="M9.99996 18.8333C14.6023 18.8333 18.3333 15.1024 18.3333 10.5C18.3333 5.89763 14.6023 2.16667 9.99996 2.16667C5.39759 2.16667 1.66663 5.89763 1.66663 10.5C1.66663 15.1024 5.39759 18.8333 9.99996 18.8333Z" stroke="#0A7EC7" stroke-linecap="round" stroke-linejoin="round"/>
<path d="M7.57495 8C7.77087 7.44306 8.15758 6.97342 8.66658 6.67428C9.17558 6.37513 9.77403 6.26578 10.3559 6.36559C10.9378 6.46541 11.4656 6.76794 11.8458 7.21961C12.2261 7.67128 12.4342 8.24294 12.4333 8.83334C12.4333 10.5 9.93328 11.3333 9.93328 11.3333" stroke="#0A7EC7" stroke-linecap="round" stroke-linejoin="round"/>
<path d="M10 14.6667H10.0083" stroke="#0A7EC7" stroke-linecap="round" stroke-linejoin="round"/>
</svg>
